<svg width="200" height="200" viewBox="0 0 200 200" fill="none" xmlns="http://www.w3.org/2000/svg">
<circle cx="100" cy="100" r="100" fill="url(#paint0_linear_229_16)"/>
<path d="M77.28 157.68C75.44 158.64 73.48 159.12 71.4 159.12C68.84 158.8 66.36 158.16 63.96 157.2C61.64 156.24 59.92 155.08 58.8 153.72C58.16 149.8 57.64 146.2 57.24 142.92C56.84 139.64 56.52 136.56 56.28 133.68C56.04 130.72 55.88 127.92 55.8 125.28C55.72 122.56 55.68 119.84 55.68 117.12C55.68 113.52 55.72 109.72 55.8 105.72C55.88 101.72 55.96 97.48 56.04 93C56.2 88.44 56.32 83.6 56.4 78.48C56.48 73.28 56.52 67.64 56.52 61.56C57.56 61.56 59.12 61.88 61.2 62.52C63.28 63.08 65.32 63.76 67.32 64.56C69.4 65.36 71.24 66.2 72.84 67.08C74.44 67.88 75.32 68.56 75.48 69.12C74.68 71.36 73.96 74.28 73.32 77.88C72.76 81.48 72.28 85.48 71.88 89.88C71.56 94.28 71.32 98.92 71.16 103.8C71 108.68 70.92 113.52 70.92 118.32C70.92 121.92 70.96 125.16 71.04 128.04C71.12 130.84 71.2 133.4 71.28 135.72C71.44 137.96 71.64 140.08 71.88 142.08C72.12 144 72.4 145.92 72.72 147.84C74.96 141.04 77.4 134.24 80.04 127.44C82.76 120.64 85.52 114.12 88.32 107.88C91.2 101.56 94.04 95.68 96.84 90.24C99.64 84.8 102.28 80.08 104.76 76.08C107.32 72 109.6 68.8 111.6 66.48C113.6 64.08 115.24 62.8 116.52 62.64C117.4 62.8 118.32 63.16 119.28 63.72C120.32 64.2 121.28 64.8 122.16 65.52C123.04 66.24 123.84 67.04 124.56 67.92C125.28 68.8 125.84 69.68 126.24 70.56C123.28 71.6 120.08 74.04 116.64 77.88C113.28 81.72 109.88 86.36 106.44 91.8C103 97.16 99.64 103.04 96.36 109.44C93.16 115.76 90.24 121.96 87.6 128.04C85.04 134.12 82.84 139.8 81 145.08C79.16 150.36 77.92 154.56 77.28 157.68ZM106.04 128.88C106.04 124.32 106.96 119.92 108.8 115.68C110.72 111.36 113.2 107.56 116.24 104.28C119.36 100.92 122.88 98.24 126.8 96.24C130.8 94.16 134.92 93.12 139.16 93.12C143.32 93.12 146.52 94.16 148.76 96.24C151 98.32 152.12 101.28 152.12 105.12C152.12 106.96 151.84 108.76 151.28 110.52C150.8 112.2 150.12 113.72 149.24 115.08C148.44 116.44 147.48 117.56 146.36 118.44C145.24 119.24 144.12 119.64 143 119.64C142.04 119.64 141.04 119.36 140 118.8C139.04 118.16 138.24 117.36 137.6 116.4C142.96 111.52 145.64 107.08 145.64 103.08C145.64 100.76 144.72 99.6 142.88 99.6C141.28 99.6 139.28 100.36 136.88 101.88C134.48 103.4 132.16 105.4 129.92 107.88C126.48 111.72 123.84 116 122 120.72C120.24 125.36 119.36 130.24 119.36 135.36C119.36 141.84 120.8 145.72 123.68 147C124.88 146.84 126.28 146.48 127.88 145.92C129.48 145.36 131.2 144.64 133.04 143.76C134.88 142.8 136.76 141.72 138.68 140.52C140.68 139.32 142.6 138.04 144.44 136.68C144.76 136.92 145.04 137.28 145.28 137.76C145.52 138.24 145.64 138.68 145.64 139.08C144.28 140.76 142.72 142.4 140.96 144C139.2 145.6 137.36 147.08 135.44 148.44C133.52 149.72 131.64 150.8 129.8 151.68C128.04 152.64 126.48 153.24 125.12 153.48C122.48 153.24 120 152.4 117.68 150.96C115.36 149.6 113.32 147.8 111.56 145.56C109.88 143.32 108.52 140.76 107.48 137.88C106.52 135 106.04 132 106.04 128.88Z" fill="black"/>
<defs>
<linearGradient id="paint0_linear_229_16" x1="0" y1="100" x2="200" y2="100" gradientUnits="userSpaceOnUse">
<stop stop-color="#7E5BEF"/>
<stop offset="0.5" stop-color="#5A31FF"/>
<stop offset="1" stop-color="#3F00FF"/>
</linearGradient>
</defs>
</svg>
